<svg xmlns="http://www.w3.org/2000/svg" width="1024" height="240" viewBox="0 0 1024 240" role="img" aria-label="core-ai logo">
  
  <g transform="translate(24 20)">
    
<g id="core-ai-c-mark" fill="none" stroke-linecap="round" stroke-linejoin="round">
  <path d="M120 24 C56 12 14 51 14 100 C14 149 56 188 120 176" stroke="#F7F3EA" stroke-width="26"/>
  <path d="M118 66 C87 60 65 76 65 100 C65 124 87 140 118 134" stroke="#F7F3EA" stroke-width="17"/>
  <circle cx="127" cy="100" r="10.5" fill="#C79A80" stroke="none"/>
</g>
  </g>
  <path d="M91.65 -2.87 C139.11 -2.87 173.72 34.45 173.72 89 C173.72 143.78 139.11 181.11 91.65 181.11 C44.14 181.11 9.69 143.78 9.69 89 C9.69 34.57 44.14 -2.87 91.65 -2.87 Z M91.65 21.4 C60.91 21.4 36.37 45.59 36.37 89 C36.37 132.68 60.91 156.84 91.65 156.84 C122.39 156.84 147.04 132.68 147.04 89 C147.04 45.59 122.39 21.4 91.65 21.4 Z M199.66 0 L226.23 0 L226.23 67.49 L265.7 67.49 C266.04 67.49 266.54 67.49 266.88 67.49 L302.41 0 L332.34 0 L293.79 71.89 C316.07 79.93 329.59 97.85 329.59 122.73 C329.59 156.84 305.66 178.24 267.5 178.24 L199.66 178.24 L199.66 0 Z M226.23 90.08 L226.23 155.27 L266.31 155.27 C289.28 155.27 303.36 142.83 303.36 122.73 C303.36 102.63 289.39 90.08 266.42 90.08 L226.23 90.08 Z M356.02 0 L475.87 0 L475.87 23.31 L382.58 23.31 L382.58 79.32 L468.95 79.32 L468.95 102.4 L382.58 102.4 L382.58 154.92 L475.87 154.92 L475.87 178.24 L356.02 178.24 L356.02 0 Z M576.74 83.03 L497.65 83.03 L497.65 60.79 L576.74 60.79 L576.74 83.03 Z M592.28 0 L620.53 0 L636.8 46.28 L708.7 46.28 L724.47 0 L753.29 0 L689.06 178.24 L657.02 178.24 L592.28 0 Z M644.8 68.91 L655.94 100.49 C660.84 115.19 665.97 130.88 673.17 153.97 C680.21 130.88 685.23 115.19 690.13 100.49 L700.92 68.91 L644.8 68.91 Z M798.17 178.24 L771.61 178.24 L771.61 0 L798.17 0 L798.17 178.24 Z" transform="translate(172 209.11) scale(1 -1)" fill="#F7F3EA" fill-rule="nonzero"/>
</svg>
